<?xml version="1.0" encoding="UTF-8"?>
<svg width="500" height="100" version="1.1" viewBox="0 0 132.29 26.458" xmlns="http://www.w3.org/2000/svg" xmlns:cc="http://creativecommons.org/ns#" xmlns:dc="http://purl.org/dc/elements/1.1/" xmlns:rdf="http://www.w3.org/1999/02/22-rdf-syntax-ns#">
 <metadata>
  <rdf:RDF>
   <cc:Work rdf:about="">
    <dc:format>image/svg+xml</dc:format>
    <dc:type rdf:resource="http://purl.org/dc/dcmitype/StillImage"/>
    <dc:title/>
   </cc:Work>
  </rdf:RDF>
 </metadata>
 <g>
  <g font-size="10.583px" stroke-width=".26458">
   <text x="13.47511" y="14.75401" font-family="'Open Sans'" style="line-height:1.25" xml:space="preserve"><tspan x="13.47511" y="14.75401" font-family="'Open Sans'" stroke-width=".26458"/></text>
   <text x="17.692904" y="43.147449" font-family="'Noto Serif Myanmar'" style="line-height:1.25" xml:space="preserve"><tspan x="17.692904" y="43.147449" font-family="'Noto Serif Myanmar'" stroke-width=".26458"/></text>
   <text x="11.829215" y="-17.064142" font-family="'Noto Serif Myanmar'" style="line-height:1.25" xml:space="preserve"><tspan x="11.829215" y="-17.064142" font-family="'Noto Serif Myanmar'" stroke-width=".26458"/></text>
  </g>
  <rect x=".66146" y=".66146" width="130.97" height="25.136" ry="6.2839" fill="#fff" stroke="#444" stroke-linejoin="round" stroke-width="1.3229" style="paint-order:normal"/>
  <g fill="#444" stroke-width=".26458" aria-label="FLASK-UPLOADER">
   <path d="m5.8897 17.582h-1.8125v-8.6883h4.98v1.5095h-3.1675v2.2404h2.9476v1.5035h-2.9476z"/>
   <path d="m10.228 17.582v-8.6883h1.8423v7.167h3.1616v1.5214z"/>
   <path d="m21.168 17.582-0.59428-2.0681h-2.9952l-0.60022 2.0681h-1.8601l2.8228-8.724h2.2523l2.8347 8.724zm-1.0222-3.6132-0.55862-1.9017q-0.03566-0.10697-0.10697-0.35062-0.07131-0.24365-0.15451-0.53485-0.07726-0.29714-0.14857-0.59428-0.07131-0.29714-0.10103-0.50514-0.02377 0.13074-0.06537 0.30902-0.03566 0.17828-0.08914 0.38034-0.04754 0.19611-0.10103 0.39817-0.05348 0.20205-0.10103 0.38034-0.04754 0.17828-0.08914 0.31497-0.03566 0.13668-0.05349 0.20206l-0.55268 1.9017z"/>
   <path d="m28.353 15.17q0 0.58239-0.20206 1.0519-0.19611 0.46354-0.58239 0.79633-0.38034 0.32685-0.93896 0.50514-0.55268 0.17828-1.2718 0.17828-0.62993 0-1.2183-0.13074-0.58239-0.13074-1.0816-0.39222v-1.7115q0.28525 0.13668 0.57645 0.26742 0.2912 0.1248 0.58834 0.22582 0.30308 0.10103 0.60022 0.16046 0.30308 0.05943 0.60022 0.05943 0.30308 0 0.51702-0.06537 0.21988-0.07131 0.35062-0.19017 0.13668-0.1248 0.19611-0.2912 0.06537-0.17234 0.06537-0.3744 0-0.24365-0.10697-0.42788-0.10103-0.19017-0.2912-0.35062-0.18423-0.1664-0.45165-0.32091-0.26148-0.15451-0.58834-0.32685-0.27337-0.14263-0.61211-0.34468-0.33874-0.20206-0.64182-0.49919-0.29714-0.30308-0.49919-0.72502-0.20205-0.42788-0.20205-1.0222 0-0.58239 0.19017-1.04 0.19611-0.46354 0.55268-0.7785 0.35657-0.32091 0.8617-0.48731 0.51108-0.1664 1.141-0.1664 0.31497 0 0.61211 0.0416 0.30308 0.041599 0.59428 0.11886 0.29714 0.077256 0.59428 0.19017 0.29714 0.11291 0.61211 0.26148l-0.59428 1.4322q-0.26742-0.1248-0.49919-0.21988-0.23177-0.09509-0.45165-0.16046-0.21988-0.06537-0.43382-0.09508-0.208-0.03566-0.42194-0.03566-0.46354 0-0.71313 0.2496-0.24365 0.24365-0.24365 0.6537 0 0.21988 0.07131 0.39222 0.07726 0.1664 0.23771 0.31497 0.1664 0.14857 0.42194 0.30308 0.26148 0.15451 0.62993 0.35062 0.44571 0.23771 0.8201 0.48731 0.3744 0.24365 0.64182 0.54674 0.27337 0.29714 0.42194 0.67748 0.14857 0.38034 0.14857 0.89142z"/>
   <path d="m36.06 17.582h-2.0919l-1.9968-3.6132-0.68936 0.51108v3.1021h-1.8423v-8.6883h1.8423v4.1837l0.72502-1.2302 1.9849-2.9536h2.0443l-2.7753 3.9163z"/>
   <path d="m35.893 15.063v-1.4857h3.1913v1.4857z"/>
   <path d="m46.596 8.894v5.6219q0 0.67748-0.208 1.2599-0.20206 0.58239-0.62399 1.0103-0.41599 0.42788-1.0459 0.67153-0.62993 0.24365-1.4798 0.24365-0.80228 0-1.4203-0.22582-0.61211-0.23177-1.0281-0.65371-0.41005-0.42194-0.62399-1.0103-0.21394-0.59428-0.21394-1.3193v-5.5981h1.8363v5.4614q0 0.48136 0.09508 0.82605 0.09509 0.33874 0.27931 0.55862 0.19017 0.21394 0.46948 0.31497 0.27931 0.10103 0.6537 0.10103 0.7785 0 1.1232-0.45165 0.35062-0.45165 0.35062-1.3609v-5.4495z"/>
   <path d="m50.037 12.983h0.36251q0.7785 0 1.1707-0.30902 0.39816-0.30902 0.39816-1.0043 0-0.64776-0.35657-0.95679-0.35062-0.30902-1.1054-0.30902h-0.46948zm3.7974-1.3787q0 0.57051-0.17234 1.0935-0.17234 0.52296-0.57051 0.92113-0.39222 0.39816-1.04 0.63588-0.64182 0.23771-1.5927 0.23771h-0.42194v3.0902h-1.8423v-8.6883h2.4128q0.83793 0 1.4441 0.19017 0.61211 0.18423 1.0043 0.53485 0.39817 0.34468 0.58834 0.84982 0.19017 0.49919 0.19017 1.1351z"/>
   <path d="m54.945 17.582v-8.6883h1.8423v7.167h3.1616v1.5214z"/>
   <path d="m68.215 13.226q0 1.0043-0.23771 1.8304-0.23177 0.82604-0.71313 1.4144-0.48136 0.58833-1.2183 0.90924-0.73096 0.32091-1.7293 0.32091t-1.7353-0.32091q-0.73096-0.32091-1.2123-0.90924-0.47542-0.58834-0.71313-1.4144-0.23177-0.83199-0.23177-1.8423 0-1.0103 0.23177-1.8304 0.23771-0.82605 0.71908-1.4084 0.48136-0.58239 1.2123-0.89736 0.7369-0.32091 1.7412-0.32091 0.99839 0 1.7293 0.32091 0.73096 0.31497 1.2064 0.9033 0.48136 0.58239 0.71313 1.4084 0.23771 0.8201 0.23771 1.8363zm-5.8952 0q0 0.68342 0.11886 1.2302 0.11886 0.54079 0.36251 0.92113 0.2496 0.37439 0.62399 0.57645 0.3744 0.20205 0.89142 0.20205 0.52891 0 0.9033-0.20205 0.38034-0.20206 0.61805-0.57645 0.24365-0.38034 0.35657-0.92113 0.11886-0.54674 0.11886-1.2302 0-0.68342-0.11886-1.2242-0.11291-0.54674-0.35657-0.92707-0.23771-0.38034-0.6121-0.58239-0.3744-0.20206-0.89736-0.20206-0.51702 0-0.89736 0.20206-0.38034 0.20205-0.62993 0.58239-0.24365 0.38034-0.36251 0.92707-0.11886 0.54079-0.11886 1.2242z"/>
   <path d="m74.318 17.582-0.59428-2.0681h-2.9952l-0.60022 2.0681h-1.8601l2.8228-8.724h2.2523l2.8347 8.724zm-1.0222-3.6132-0.55862-1.9017q-0.03566-0.10697-0.10697-0.35062t-0.15451-0.53485q-0.07726-0.29714-0.14857-0.59428-0.07131-0.29714-0.10103-0.50514-0.02377 0.13074-0.06537 0.30902-0.03566 0.17828-0.08914 0.38034-0.04754 0.19611-0.10103 0.39817-0.05348 0.20205-0.10103 0.38034-0.04754 0.17828-0.08914 0.31497-0.03566 0.13668-0.05348 0.20206l-0.55268 1.9017z"/>
   <path d="m83.464 13.155q0 1.0994-0.30308 1.9314-0.29714 0.82604-0.86764 1.3847-0.56456 0.55268-1.3906 0.83199-0.8201 0.27931-1.872 0.27931h-2.288v-8.6883h2.5435q0.95679 0 1.7234 0.27337 0.77256 0.27337 1.3193 0.81416 0.54674 0.53485 0.83793 1.3312 0.29714 0.79633 0.29714 1.8423zm-1.866 0.04754q0-0.72502-0.14857-1.248-0.14263-0.52891-0.42194-0.87359-0.27337-0.34468-0.67748-0.51108-0.39817-0.1664-0.91519-0.1664h-0.84982v5.6575h0.67748q1.1648 0 1.7472-0.71313 0.58833-0.71313 0.58833-2.1453z"/>
   <path d="m89.739 17.582h-5.0038v-8.6883h5.0038v1.5095h-3.1616v1.9076h2.9417v1.5095h-2.9417v2.2404h3.1616z"/>
   <path d="m92.865 12.751h0.49919q0.76662 0 1.0994-0.30308 0.3328-0.30902 0.3328-0.9033 0-0.61805-0.35657-0.87953-0.35657-0.26148-1.1054-0.26148h-0.46948zm0 1.4976v3.3339h-1.8423v-8.6883h2.3771q1.6699 0 2.4663 0.64776 0.79633 0.64182 0.79633 1.9552 0 0.44571-0.11886 0.80822-0.11886 0.36251-0.32091 0.64776-0.19611 0.27931-0.45759 0.49325-0.25554 0.208-0.54079 0.35062 0.65965 1.0578 1.1826 1.8898 0.22582 0.35657 0.43382 0.6953 0.21394 0.33874 0.38034 0.60616 0.1664 0.26742 0.27337 0.42788l0.10103 0.1664h-2.0443l-1.8839-3.3339z"/>
  </g>
  <path d="m100.54 0.66146v25.135h24.805c3.4813 0 6.2839-2.8026 6.2839-6.2839v-12.568c0-3.4813-2.8026-6.2839-6.2839-6.2839z" fill="#444" stroke="#444" stroke-linejoin="round" stroke-width="1.3229" style="paint-order:normal"/>
  <g fill="#fff" stroke-width=".26458" aria-label="s">
   <path d="m123.71 19.758-7.612-13.057-7.6306 13.057z" fill="#fff" stroke-width=".26458"/>
  </g>
 </g>
 <g>
  <text x="27.03957" y="41.310139" font-family="'Open Sans'" font-size="10.583px" stroke-width=".26458" style="line-height:1.25" xml:space="preserve"><tspan x="27.03957" y="41.310139" font-family="'Open Sans'" stroke-width=".26458"/></text>
 </g>
</svg>
